# xmcd CD database file
#
# Track frame offsets:
#	150
#	20225
#	40587
#	61325
#	80150
#	97222
#	114175
#	135920
#	152815
#	171495
#	194215
#	211157
#	234917
#	255422
#	277855
#	296895
#	313867
#
# Disc length: 4479 seconds
#
# Revision: 8
# Processed by: cddbd v1.5.2PL0 Copyright (c) Steve Scherf et al.
# Submitted via: CDex 1.51
#
DISCID=f7117d11
DTITLE=Lara Fabian - Lara Fabian
DYEAR=1999
DGENRE=Pop
TTITLE0=Adagio
TTITLE1=Part Of Me
TTITLE2=Givin' up On You
TTITLE3=You Are My Heart
TTITLE4=I Am Who I Am
TTITLE5=To Love Again
TTITLE6=You're Not From Here
TTITLE7=Till I Get Over You
TTITLE8=Love By Grace
TTITLE9=Yeliel (My Angel)
TTITLE10=I Will Love Again
TTITLE11=Broken Vow
TTITLE12=Quédate (Bonus Spanish Track)
TTITLE13=Sola Otra Vez (Bonus Spanish Track)
TTITLE14=Sin Ti (Bonus Spanish Track)
TTITLE15=Otro Amor Vendra (I Will Love Again) (Bonus Spanish Track)
TTITLE16=Otro Amor Vendra (I Will Love Again) (Ballad Reprise) (Bonus Spanish Track)
EXTD=YEAR: 1999
EXTT0=
EXTT1=
EXTT2=
EXTT3=
EXTT4=
EXTT5=
EXTT6=
EXTT7=
EXTT8=
EXTT9=
EXTT10=
EXTT11=
EXTT12=
EXTT13=
EXTT14=
EXTT15=
EXTT16=
PLAYORDER=
